<?xml version="1.0" standalone="no"?>
<!DOCTYPE svg PUBLIC "-//W3C//DTD SVG 20010904//EN"
 "http://www.w3.org/TR/2001/REC-SVG-20010904/DTD/svg10.dtd">
<svg version="1.0" xmlns="http://www.w3.org/2000/svg"
 width="534.000000pt" height="427.000000pt" viewBox="0 0 534.000000 427.000000"
 preserveAspectRatio="xMidYMid meet">

<g transform="translate(0.000000,427.000000) scale(0.100000,-0.100000)"
fill="#000000" stroke="none">
<path d="M1684 2687 c-107 -28 -203 -109 -252 -215 -22 -48 -27 -71 -26 -142
0 -110 32 -186 110 -260 52 -49 141 -100 176 -100 9 0 20 -4 23 -10 4 -6 -8
-10 -29 -10 -51 0 -164 -25 -241 -55 -224 -84 -383 -263 -410 -462 l-7 -53
752 0 752 0 -7 53 c-24 174 -142 327 -327 423 -86 44 -250 94 -308 94 -60 0
-64 13 -9 27 103 26 193 104 241 209 19 40 23 66 23 144 0 82 -4 103 -27 152
-74 158 -265 248 -434 205z"/>
<path d="M2730 2245 l0 -155 -155 0 -155 0 0 -65 0 -65 155 0 155 0 0 -155 0
-155 65 0 65 0 0 155 0 155 155 0 155 0 0 65 0 65 -155 0 -155 0 0 155 0 155
-65 0 -65 0 0 -155z"/>
<path d="M3590 2245 l0 -155 -160 0 -160 0 0 -65 0 -65 160 0 160 0 0 -155 0
-155 65 0 65 0 0 155 0 155 150 0 150 0 0 65 0 65 -150 0 -150 0 0 155 0 155
-65 0 -65 0 0 -155z"/>
</g>
</svg>
